<svg width="62" height="26" viewBox="0 0 62 26" fill="none" xmlns="http://www.w3.org/2000/svg">
<path d="M11.5869 3.35122C12.3004 2.43725 12.8055 1.21862 12.6532 0C11.5869 0.0481036 10.3202 0.713537 9.55852 1.57138C8.9011 2.33302 8.29179 3.59975 8.44412 4.77027C9.66274 4.9226 10.8333 4.26519 11.5949 3.35122H11.5869ZM12.6532 5.07493C10.9295 4.97071 9.45429 6.037 8.64455 6.037C7.8348 6.037 6.56006 5.12303 5.18911 5.12303C3.40927 5.17114 1.78978 6.14123 0.875815 7.76072C-0.952122 10.9596 0.370727 15.6818 2.19866 18.2714C3.06453 19.5381 4.13083 20.9652 5.50178 20.909C6.82463 20.8609 7.32972 20.0432 8.9011 20.0432C10.4725 20.0432 10.9295 20.909 12.3565 20.8529C13.7756 20.8048 14.6896 19.5862 15.5554 18.2633C16.5736 16.7882 16.9745 15.3691 16.9745 15.321C16.9264 15.2729 14.1845 14.2547 14.1845 11.1039C14.1364 8.46624 16.3171 7.19149 16.4213 7.14339C15.2508 5.31545 13.3266 5.11502 12.6612 5.0589L12.6532 5.07493ZM27.5813 1.46716C31.3414 1.46716 33.931 4.05674 33.931 7.76072C33.931 11.5208 31.2933 14.1104 27.4851 14.1104H23.3723V20.6605H20.3738V1.46716H27.5813ZM23.3643 11.625H26.7636C29.3532 11.625 30.8283 10.206 30.8283 7.81684C30.8283 5.37959 29.3532 4.00863 26.7636 4.00863H23.3081V11.625H23.3562H23.3643ZM34.6927 16.7561C34.6927 14.3188 36.5687 12.7956 39.9199 12.5951L43.7762 12.3947V11.3284C43.7762 9.75702 42.7099 8.84305 40.9862 8.84305C39.3106 8.84305 38.2924 9.65279 38.0439 10.8714H35.302C35.4543 8.32994 37.635 6.4539 41.0904 6.4539C44.4898 6.4539 46.6785 8.23374 46.6785 11.0718V20.7246H43.9366V18.4397H43.8885C43.0787 20.0111 41.2989 20.9812 39.4709 20.9812C36.6248 20.9812 34.7007 19.2575 34.7007 16.7641L34.6927 16.7561ZM43.7842 15.4894V14.375L40.3288 14.5754C38.6051 14.6796 37.635 15.4413 37.635 16.6599C37.635 17.8785 38.6532 18.6883 40.1765 18.6883C42.2048 18.6883 43.7842 17.3173 43.7842 15.4894ZM49.2199 25.9038V23.5708C49.4204 23.6189 49.9335 23.6189 50.1339 23.6189C51.4568 23.6189 52.1623 23.0577 52.6193 21.6386C52.6193 21.5905 52.8758 20.7727 52.8758 20.7727L47.8009 6.75856H50.8956L54.4472 18.1832H54.4953L58.047 6.75856H61.0935L55.8663 21.5344C54.6476 24.9337 53.2767 26 50.3824 26C50.182 25.9519 49.4685 25.9519 49.2119 25.8958L49.2199 25.9038Z" fill="white"/>
</svg>
