<svg width="13" height="13" viewBox="0 0 13 13" fill="none" xmlns="http://www.w3.org/2000/svg">
<path d="M0 3.0971L6.17383 0L12.3477 3.0971V3.50353L6.17383 6.60062L0 3.51613V3.0971Z" fill="#EFC75E"/>
<path d="M0 3.09715L6.17383 6.19425L12.3477 3.09715V9.30079L6.1551 12.3947L0 9.30079V3.09715Z" fill="#E7BF55"/>
<path d="M6.17383 12.3853V6.19428L0.037455 3.11609H0V9.29767L6.1551 12.3948L6.17383 12.3853Z" fill="#DBB551"/>
<path d="M2.51883 1.83986L8.68329 4.93697L9.93804 4.31314L3.75172 1.21603L2.51883 1.83986Z" fill="#F7E3AF"/>
<path d="M8.68329 4.93706L9.93803 4.31323V6.26034L9.60094 6.20048L9.24511 6.63842L8.68641 6.60061V4.93391L8.68329 4.93706Z" fill="#F1D999"/>
<path d="M4.90036 8.66744L2.81536 7.61512C2.69988 7.55526 2.60312 7.62458 2.60312 7.76951V9.181C2.60312 9.32593 2.69988 9.49292 2.81536 9.54963L4.90972 10.6019C5.02521 10.6618 5.12197 10.5925 5.12197 10.4476V9.02662C5.1126 8.88169 5.01584 8.72415 4.90036 8.66744ZM4.42593 9.82689L3.09628 9.1558C3.03697 9.12744 2.99015 9.03922 2.99015 8.96046C2.99015 8.88169 3.03697 8.84388 3.09628 8.87224L4.42593 9.54333C4.48523 9.57168 4.53205 9.6599 4.53205 9.73867C4.53205 9.81744 4.48523 9.85524 4.42593 9.82689ZM4.61945 9.33853L3.09628 8.56032C3.03697 8.53197 2.99015 8.44375 2.99015 8.36498C2.99015 8.28622 3.03697 8.24841 3.09628 8.27676L4.61945 9.05498C4.67875 9.08333 4.72557 9.17155 4.72557 9.25032C4.72557 9.33854 4.67875 9.36689 4.61945 9.33853Z" fill="#F2F2F2"/>
</svg>
