<svg width="22" height="17" viewBox="0 0 22 17" fill="none" xmlns="http://www.w3.org/2000/svg">
<path d="M9.86178 1.76475C9.35196 0.721884 8.26754 0 7.01357 0C5.2728 0 3.8555 1.39312 3.8555 3.10595V4.02515H1.78249C1.47588 4.02515 1.21982 4.25497 1.19195 4.55552L0.183355 15.6019C0.168446 15.7648 0.223891 15.9263 0.336356 16.0468C0.448496 16.1679 0.607253 16.2365 0.773519 16.2365H8.42603C7.97358 15.8887 7.55707 15.4983 7.18208 15.0709H1.42211L2.32442 5.19011H3.8555V6.23231C3.8555 6.55423 4.12124 6.81492 4.44826 6.81492C4.77561 6.81492 5.04039 6.55391 5.04039 6.23231V5.19011H6.20268C6.44089 4.77959 6.71279 4.38977 7.01421 4.02483H5.04039V3.10564C5.04039 2.03568 5.92523 1.16552 7.01326 1.16552C7.83454 1.16552 8.54011 1.66117 8.83667 2.36491C9.16304 2.14244 9.50496 1.94197 9.86115 1.76444L9.86178 1.76475Z" fill="black"/>
<path d="M13.8142 16.7268C9.73309 16.7268 6.4133 13.4625 6.4133 9.44876C6.4133 5.43568 9.73309 2.17098 13.8142 2.17098C17.895 2.17098 21.2148 5.43568 21.2148 9.44876C21.2148 13.4625 17.895 16.7268 13.8142 16.7268ZM13.8142 3.34423C10.3913 3.34423 7.60628 6.08269 7.60628 9.44876C7.60628 12.8151 10.391 15.5537 13.8142 15.5537C17.2371 15.5537 20.0218 12.8155 20.0218 9.44876C20.0218 6.08301 17.2374 3.34423 13.8142 3.34423Z" fill="black"/>
<path d="M17.0521 13.3915C16.9335 13.3915 16.8155 13.3468 16.725 13.2579L13.4872 10.0735C13.4 9.98805 13.3517 9.87235 13.3517 9.75219V5.50677C13.3517 5.25561 13.5588 5.05196 13.8142 5.05196C14.0696 5.05196 14.2767 5.25561 14.2767 5.50677V9.56382L17.3788 12.6144C17.5597 12.7919 17.5597 13.08 17.3788 13.2579C17.2887 13.3468 17.1704 13.3915 17.0517 13.3915H17.0521Z" fill="black"/>
</svg>
