<svg
                width="40"
                height="41"
                viewBox="0 0 40 41"
                fill="none"
                xmlns="http://www.w3.org/2000/svg"
              >
                <path
                  d="M38.6734 16.575H26.9804C26.9246 17.6044 26.5011 18.5358 25.8235 19.2282H37.3468V28.0667L35.9698 23.2183C35.8078 22.6483 35.287 22.2544 34.6937 22.2544H6.63335V14.876H14.7613V12.2229H5.30681C4.57359 12.2229 3.9802 12.8168 3.9802 13.5495V22.2544H1.32705C0.911199 22.2544 0.518697 22.4493 0.268564 22.781C0.0172807 23.1133 -0.0629459 23.5435 0.0509824 23.9438L3.83618 37.2749C4.11352 38.2515 5.00539 38.9252 6.02055 38.925L37.73 38.9197C38.9837 38.9195 39.9999 37.9031 39.9999 36.6494V17.9016C39.9999 17.169 39.4067 16.575 38.6734 16.575Z"
                  fill="#B2B3B3"
                />
                <path
                  d="M40.0002 40.0464V40.0337C39.9943 40.0453 39.9935 40.0505 40.0002 40.0464Z"
                  fill="#B2B3B3"
                />
                <path
                  d="M14.7211 8.36296H17.4145V16.3504C17.4145 17.1613 18.07 17.8175 18.8796 17.8175H22.8826C23.6937 17.8175 24.3505 17.1613 24.3505 16.3504V8.36296H27.0425C27.4867 8.36296 27.8896 8.09417 28.0607 7.68219C28.2304 7.27218 28.1373 6.79805 27.8212 6.48257L21.6596 0.323126C21.4459 0.10801 21.1635 0 20.8812 0C20.6 0 20.3177 0.10801 20.1025 0.323126L13.9438 6.48265C13.6264 6.79814 13.5344 7.27218 13.7056 7.68227C13.8765 8.09426 14.2768 8.36296 14.7211 8.36296Z"
                  fill="#B2B3B3"
                />
              </svg>