<svg width="25" height="25" viewBox="0 0 25 25" fill="none" xmlns="http://www.w3.org/2000/svg">
<path d="M12.4999 0C19.3597 0 24.9241 5.59751 24.9241 12.5C24.9241 19.4025 19.3597 25 12.4999 25C5.6401 25 0.0756836 19.4025 0.0756836 12.5C0.0756836 5.59751 5.6401 0 12.4999 0Z" fill="white"/>
<path d="M12.4975 0C19.398 0 24.995 5.63033 24.995 12.5739C24.995 18.869 20.392 24.0808 14.3876 25V16.2672H17.5324L18.0131 12.5739H14.3632V10.2101C14.3632 9.14314 14.6565 8.40446 16.1881 8.40446H18.1353V5.09685C17.1902 4.99015 16.2451 4.94091 15.3001 4.94911C12.4975 4.94911 10.583 6.67269 10.583 9.84078V12.5821H7.40564V16.2754H10.5993V25C4.59492 24.0808 0 18.869 0 12.5739C0 5.63033 5.597 0 12.4975 0Z" fill="#B2B3B3"/>
</svg>
