<svg width="16" height="14" viewBox="0 0 16 14" fill="none" xmlns="http://www.w3.org/2000/svg">
<path d="M15.5 11C15.6458 11 15.7604 11.0521 15.8438 11.1562C15.9479 11.2396 16 11.3542 16 11.5V12.5C16 12.6458 15.9479 12.7708 15.8438 12.875C15.7604 12.9583 15.6458 13 15.5 13H5V13.5C5 13.6458 4.94792 13.7604 4.84375 13.8438C4.76042 13.9479 4.64583 14 4.5 14H3.5C3.35417 14 3.22917 13.9479 3.125 13.8438C3.04167 13.7604 3 13.6458 3 13.5V13H0.5C0.354167 13 0.229167 12.9583 0.125 12.875C0.0416667 12.7708 0 12.6458 0 12.5V11.5C0 11.3542 0.0416667 11.2396 0.125 11.1562C0.229167 11.0521 0.354167 11 0.5 11H3V10.5C3 10.3542 3.04167 10.2396 3.125 10.1562C3.22917 10.0521 3.35417 10 3.5 10H4.5C4.64583 10 4.76042 10.0521 4.84375 10.1562C4.94792 10.2396 5 10.3542 5 10.5V11H15.5ZM15.5 6C15.6458 6 15.7604 6.05208 15.8438 6.15625C15.9479 6.23958 16 6.35417 16 6.5V7.5C16 7.64583 15.9479 7.77083 15.8438 7.875C15.7604 7.95833 15.6458 8 15.5 8H13V8.5C13 8.64583 12.9479 8.77083 12.8438 8.875C12.7604 8.95833 12.6458 9 12.5 9H11.5C11.3542 9 11.2292 8.95833 11.125 8.875C11.0417 8.77083 11 8.64583 11 8.5V8H0.5C0.354167 8 0.229167 7.95833 0.125 7.875C0.0416667 7.77083 0 7.64583 0 7.5V6.5C0 6.35417 0.0416667 6.23958 0.125 6.15625C0.229167 6.05208 0.354167 6 0.5 6H11V5.5C11 5.35417 11.0417 5.23958 11.125 5.15625C11.2292 5.05208 11.3542 5 11.5 5H12.5C12.6458 5 12.7604 5.05208 12.8438 5.15625C12.9479 5.23958 13 5.35417 13 5.5V6H15.5ZM15.5 1C15.6458 1 15.7604 1.05208 15.8438 1.15625C15.9479 1.23958 16 1.35417 16 1.5V2.5C16 2.64583 15.9479 2.77083 15.8438 2.875C15.7604 2.95833 15.6458 3 15.5 3H9V3.5C9 3.64583 8.94792 3.77083 8.84375 3.875C8.76042 3.95833 8.64583 4 8.5 4H7.5C7.35417 4 7.22917 3.95833 7.125 3.875C7.04167 3.77083 7 3.64583 7 3.5V3H0.5C0.354167 3 0.229167 2.95833 0.125 2.875C0.0416667 2.77083 0 2.64583 0 2.5V1.5C0 1.35417 0.0416667 1.23958 0.125 1.15625C0.229167 1.05208 0.354167 1 0.5 1H7V0.5C7 0.354167 7.04167 0.239583 7.125 0.15625C7.22917 0.0520833 7.35417 0 7.5 0H8.5C8.64583 0 8.76042 0.0520833 8.84375 0.15625C8.94792 0.239583 9 0.354167 9 0.5V1H15.5Z" fill="#EE35FF"/>
</svg>
