<svg width="17" height="20" viewBox="0 0 17 20" fill="none" xmlns="http://www.w3.org/2000/svg">
<path fill-rule="evenodd" clip-rule="evenodd" d="M8.15425 19.8533C5.73364 18.8357 3.86189 17.5832 2.57887 15.9877C1.26536 14.3553 0.585144 12.4006 0.585144 10.013V3.04604L1.44127 3.01841C2.60936 2.98157 3.72584 2.73522 4.80011 2.30237C5.88845 1.86492 6.93691 1.23407 7.95019 0.435148L8.5014 0L9.0526 0.435148C10.0659 1.23407 11.112 1.86492 12.2027 2.30237C12.3223 2.35072 12.4419 2.39677 12.5616 2.43821C12.3129 2.61319 12.0878 2.82731 11.8954 3.08057L11.3325 3.81733C10.3544 3.4029 9.41147 2.86185 8.50374 2.20107C7.53268 2.90559 6.52175 3.47658 5.47328 3.90022C4.47173 4.30313 3.43265 4.57021 2.35604 4.68533V10.0107C2.35604 11.9954 2.9049 13.5978 3.96274 14.9148C4.99244 16.1949 6.5194 17.2332 8.50374 18.1105C10.4881 17.2356 12.015 16.1949 13.0447 14.9148C14.1026 13.5978 14.6514 11.9954 14.6514 10.0107V9.58938L16.4176 7.2801V10.0107C16.4176 12.3983 15.7374 14.353 14.4239 15.9854C13.1409 17.5809 11.2668 18.8334 8.84854 19.851L8.50374 19.9961L8.15895 19.851L8.15425 19.8533Z" fill="url(#paint0_linear)"/>
<path fill-rule="evenodd" clip-rule="evenodd" d="M4.00028 9.73371L7.68515 13.3692C8.13315 13.8112 8.86027 13.8135 9.31062 13.3738C9.36222 13.3231 9.41148 13.2678 9.47012 13.1827L15.2871 5.57793C15.6671 5.08062 15.5639 4.37379 15.0572 4.00081C14.5506 3.62782 13.8305 3.72913 13.4505 4.22644L8.38178 10.8527L5.63044 8.14047C5.18244 7.69841 4.45532 7.69611 4.00497 8.13586C3.55463 8.57562 3.55228 9.28935 4.00028 9.73141V9.73371Z" fill="#2B2A29"/>
<defs>
<linearGradient id="paint0_linear" x1="8.33955" y1="-0.0391402" x2="3.31988" y2="19.6662" gradientUnits="userSpaceOnUse">
<stop stop-color="#FF29FF"/>
<stop offset="1" stop-color="#32B9FF"/>
</linearGradient>
</defs>
</svg>
