<svg width="25" height="25" viewBox="0 0 28 28" fill="none" xmlns="http://www.w3.org/2000/svg">
<path d="M2.20076 20.1676C1.16059 18.2377 0.570312 16.0296 0.570312 13.6831C0.570312 11.4145 1.12221 9.27462 2.09984 7.39064H2.10072L6.5567 11.0402C6.27243 11.8685 6.1177 12.7579 6.1177 13.6834C6.11798 14.6881 6.29972 15.6503 6.6333 16.5383L2.20076 20.1679V20.1676Z" fill="#FBBB00"/>
<path d="M27.6894 11.127C27.8466 11.9544 27.9283 12.8095 27.9283 13.6829C27.9283 14.6625 27.8252 15.6181 27.6291 16.5397C26.9631 19.6767 25.2231 22.4152 22.8128 24.3533L22.8119 24.3525L18.3567 20.7042C19.9559 19.7657 21.206 18.2974 21.8644 16.5397H14.5498V11.127H21.9712H27.6891H27.6894Z" fill="#518EF8"/>
<path d="M22.8119 24.3527L22.8127 24.3535C20.4686 26.238 17.4906 27.3659 14.2489 27.3659C9.03982 27.3659 4.51095 24.4535 2.20068 20.1676L6.63357 16.5379C7.7887 19.6219 10.7627 21.8168 14.2489 21.8168C15.7478 21.8168 17.1517 21.4118 18.3565 20.7041L22.8116 24.3527H22.8119Z" fill="#28B446"/>
<path d="M22.9803 3.15022L18.5492 6.77897C17.3022 5.99944 15.8284 5.54907 14.2492 5.54907C10.6838 5.54907 7.65396 7.8451 6.55686 11.0396L2.10087 7.39023H2.1001C4.37655 2.99998 8.96267 1.52588e-05 14.2492 1.52588e-05C17.5681 1.52588e-05 20.6114 1.18281 22.9803 3.15022Z" fill="#F14336"/>
</svg>
