<svg width="23" height="23" viewBox="0 0 23 23" fill="none" xmlns="http://www.w3.org/2000/svg">
<path d="M22.0153 11.4892C22.0153 10.7268 21.9517 9.96449 21.8247 9.20215H11.2366V13.5221H17.3036C17.0494 14.9197 16.2447 16.1479 15.0589 16.9315V19.7373H18.68C20.7976 17.7891 22.0258 14.8985 22.0258 11.4786L22.0153 11.4892Z" fill="#B2B3B3"/>
<path d="M11.2366 22.4576C14.2648 22.4576 16.8166 21.4624 18.6801 19.7471L15.0589 16.9412C14.0531 17.6295 12.7507 18.0106 11.2366 18.0106C8.30374 18.0106 5.82613 16.0412 4.93673 13.373H1.20972V16.2636C3.11557 20.0541 7.0014 22.447 11.2472 22.447L11.2366 22.4576Z" fill="#B2B3B3"/>
<path d="M4.92611 13.3837C4.46024 11.986 4.46024 10.4825 4.92611 9.08489V6.19434H1.1991C-0.399701 9.37077 -0.399701 13.1084 1.1991 16.2848L4.92611 13.3942V13.3837Z" fill="#B2B3B3"/>
<path d="M11.2365 4.4477C12.8353 4.42653 14.3812 5.03005 15.5458 6.13121L18.754 2.92302C16.7211 1.01716 14.0317 -0.0310629 11.2365 0.000701392C6.99066 0.000701392 3.10483 2.39361 1.19897 6.18415L4.92599 9.0747C5.81539 6.41709 8.30359 4.43711 11.2259 4.43711L11.2365 4.4477Z" fill="#B2B3B3"/>
</svg>
