<svg width="69" height="27" viewBox="0 0 69 27" fill="none" xmlns="http://www.w3.org/2000/svg">
<path d="M32.1694 13.1932V21.1025H29.66V1.55686H36.3199C37.9293 1.52509 39.4752 2.12861 40.6293 3.25095C41.794 4.29917 42.4505 5.80268 42.4293 7.38031C42.461 8.95794 41.8046 10.472 40.6293 11.5308C39.4646 12.6426 38.0246 13.1932 36.3199 13.1932H32.1694ZM32.1694 3.97094V10.8003H36.3835C37.3152 10.832 38.2152 10.4614 38.8717 9.78381C40.1952 8.50265 40.227 6.39562 38.9352 5.07211C38.914 5.05093 38.8929 5.02975 38.8717 5.00858C38.2258 4.32035 37.3258 3.94977 36.3835 3.97094H32.1694ZM48.221 7.29561C50.0739 7.29561 51.5456 7.79325 52.615 8.77794C53.6844 9.77322 54.2244 11.1285 54.2244 12.8544V21.1025H51.8209V19.2496H51.715C50.6774 20.7743 49.2904 21.5472 47.5645 21.5472C46.0928 21.5472 44.854 21.1131 43.8693 20.2343C42.9057 19.419 42.3552 18.2225 42.3869 16.9625C42.3869 15.5755 42.9057 14.4743 43.954 13.6591C45.0022 12.8438 46.3998 12.4308 48.1469 12.4308C49.6398 12.4308 50.868 12.7061 51.8315 13.2461V12.6744C51.8421 11.8167 51.4503 11.0014 50.7939 10.4509C50.1268 9.84734 49.2692 9.5297 48.3692 9.54028C46.9716 9.54028 45.8598 10.1332 45.0445 11.3191L42.8316 9.92145C44.0493 8.17442 45.8492 7.30619 48.2316 7.30619L48.221 7.29561ZM44.9704 17.0155C44.9704 17.6614 45.2775 18.2755 45.8069 18.6566C46.3575 19.0907 47.0563 19.3237 47.7551 19.3131C48.8139 19.3131 49.8304 18.8896 50.5821 18.1378C51.4186 17.3543 51.8315 16.4331 51.8315 15.3849C51.048 14.7602 49.9574 14.4532 48.5598 14.4532C47.5433 14.4532 46.6857 14.6967 46.0081 15.1943C45.3198 15.692 44.981 16.3061 44.981 17.0367L44.9704 17.0155ZM68.0101 7.72972L59.6244 27.0001H57.0303L60.1432 20.2554L54.6268 7.72972H57.3585L61.3396 17.3331H61.3926L65.2678 7.72972H67.9995H68.0101Z" fill="white"/>
<path d="M22.0153 11.4892C22.0153 10.7268 21.9517 9.96449 21.8247 9.20215H11.2366V13.5221H17.3036C17.0494 14.9197 16.2447 16.1479 15.0589 16.9315V19.7373H18.68C20.7976 17.7891 22.0258 14.8985 22.0258 11.4786L22.0153 11.4892Z" fill="#4285F4"/>
<path d="M11.2366 22.4576C14.2648 22.4576 16.8166 21.4624 18.6801 19.7471L15.0589 16.9412C14.0531 17.6295 12.7507 18.0106 11.2366 18.0106C8.30374 18.0106 5.82613 16.0412 4.93673 13.373H1.20972V16.2636C3.11557 20.0541 7.0014 22.447 11.2472 22.447L11.2366 22.4576Z" fill="#34A853"/>
<path d="M4.92611 13.3837C4.46024 11.986 4.46024 10.4825 4.92611 9.08489V6.19434H1.1991C-0.399701 9.37077 -0.399701 13.1084 1.1991 16.2848L4.92611 13.3942V13.3837Z" fill="#FBBC04"/>
<path d="M11.2365 4.4477C12.8353 4.42653 14.3812 5.03005 15.5458 6.13121L18.754 2.92302C16.7211 1.01716 14.0317 -0.0310629 11.2365 0.000701392C6.99066 0.000701392 3.10483 2.39361 1.19897 6.18415L4.92599 9.0747C5.81539 6.41709 8.30359 4.43711 11.2259 4.43711L11.2365 4.4477Z" fill="#EA4335"/>
</svg>
