<svg width="27" height="24" viewBox="0 0 27 24" fill="none" xmlns="http://www.w3.org/2000/svg">
<path d="M22.9576 9.45605C20.7844 9.45605 19.0175 11.2237 19.0175 13.3962V14.1842C18.0035 14.1842 12.8377 14.1842 11.8202 14.1842C11.3847 14.1842 11.0322 14.5366 11.0322 14.9722V18.1243C11.0322 18.5598 11.3847 18.9123 11.8202 18.9123H14.9723C15.4079 18.9123 15.7604 18.5598 15.7604 18.1243V15.7602H19.0175V16.5482C19.0175 18.7207 20.7844 20.4883 22.9576 20.4883C25.1308 20.4883 26.8977 18.7207 26.8977 16.5482V13.3962C26.8977 11.2237 25.1308 9.45605 22.9576 9.45605ZM23.7456 16.5482C23.7456 16.9838 23.3932 17.3363 22.9576 17.3363C22.522 17.3363 22.1696 16.9838 22.1696 16.5482V13.3962C22.1696 12.9606 22.522 12.6081 22.9576 12.6081C23.3932 12.6081 23.7456 12.9606 23.7456 13.3962V16.5482Z" fill="#B2B3B3"/>
<path d="M9.45625 18.1243V14.9722C9.45625 13.6686 10.5167 12.6081 11.8203 12.6081H14.1844V10.2441C14.1844 9.80851 13.8319 9.45605 13.3964 9.45605H0.788021C0.352455 9.45605 0 9.80851 0 10.2441V22.8524C0 23.288 0.352455 23.6404 0.788021 23.6404H13.3964C13.8319 23.6404 14.1844 23.288 14.1844 22.8524V20.4883H11.8203C10.5167 20.4883 9.45625 19.4279 9.45625 18.1243ZM7.88021 18.1243C7.88021 18.5598 7.52775 18.9123 7.09219 18.9123C6.65662 18.9123 6.30417 18.5598 6.30417 18.1243V14.9722C6.30417 14.5366 6.65662 14.1842 7.09219 14.1842C7.52775 14.1842 7.88021 14.5366 7.88021 14.9722V18.1243Z" fill="#B2B3B3"/>
<path d="M3.15197 5.51615C3.15197 3.34368 4.91887 1.57604 7.09207 1.57604C9.26528 1.57604 11.0322 3.34368 11.0322 5.51615V7.88021H12.6082V5.51615C12.6082 2.47486 10.1334 0 7.09207 0C4.05079 0 1.57593 2.47486 1.57593 5.51615V7.88021H3.15197V5.51615Z" fill="#B2B3B3"/>
</svg>
