<svg width="23" height="15" viewBox="0 0 23 15" fill="none" xmlns="http://www.w3.org/2000/svg">
<path d="M15.3115 7.5801L22.6364 12.2108V2.75391L15.3115 7.5801Z" fill="#B2B3B3"/>
<path d="M0.908936 2.75391V12.2108L8.23378 7.5801L0.908936 2.75391Z" fill="#B2B3B3"/>
<path d="M21.2784 0H2.26693C1.58931 0 1.05155 0.505162 0.949707 1.15563L11.7727 8.28629L22.5956 1.15563C22.4938 0.505162 21.956 0 21.2784 0Z" fill="#B2B3B3"/>
<path d="M14.0676 8.40077L12.1461 9.66639C12.032 9.74108 11.903 9.77775 11.7726 9.77775C11.6423 9.77775 11.5133 9.74108 11.3992 9.66639L9.47768 8.39941L0.952393 13.7919C1.05696 14.4369 1.59199 14.938 2.2669 14.938H21.2784C21.9533 14.938 22.4883 14.4369 22.5929 13.7919L14.0676 8.40077Z" fill="#B2B3B3"/>
</svg>
