<svg width="46" height="27" viewBox="0 0 46 27" fill="none" xmlns="http://www.w3.org/2000/svg">
<path d="M28.9229 2.8877H16.7574V24.1074H28.9229V2.8877Z" fill="#FF5F00"/>
<path d="M17.5284 13.4996C17.5284 9.18741 19.6136 5.36631 22.8215 2.88679C20.4649 1.09003 17.4914 0 14.2465 0C6.55977 0 0.341309 6.0371 0.341309 13.4996C0.341309 20.9621 6.55977 26.9992 14.2465 26.9992C17.4914 26.9992 20.4649 25.9092 22.8215 24.1125C19.6136 21.6749 17.5284 17.8118 17.5284 13.4996Z" fill="#EB001B"/>
<path d="M45.3328 13.5006C45.3328 20.9631 39.1143 27.0002 31.4276 27.0002C28.1826 27.0002 25.2091 25.9102 22.8525 24.1134C26.0975 21.6399 28.1456 17.8128 28.1456 13.5006C28.1456 9.18839 26.0605 5.36729 22.8525 2.88776C25.2091 1.09101 28.1826 0.000976562 31.4276 0.000976562C39.1143 0.000976562 45.3328 6.07401 45.3328 13.5006Z" fill="#F79E1B"/>
</svg>
