<svg width="13" height="14" viewBox="0 0 13 14" fill="none" xmlns="http://www.w3.org/2000/svg">
<path fill-rule="evenodd" clip-rule="evenodd" d="M0.32539 5.76649L2.41975 3.6524V9.47166L0.32539 7.35757C-0.108463 6.91963 -0.108463 6.20443 0.32539 5.76649ZM3.64952 2.41104L5.71267 0.328456C6.14652 -0.109485 6.85504 -0.109485 7.2889 0.328456L9.35204 2.41104H7.6572V5.24348H5.34436V2.41104H3.64952ZM10.5787 3.6524L12.673 5.76649C13.1069 6.20443 13.1069 6.91963 12.673 7.35757L10.5787 9.47166V3.6524ZM9.34892 10.7099L7.28577 12.7925C6.85192 13.2304 6.1434 13.2304 5.70954 12.7925L3.6464 10.7099H5.34124V7.87743H7.65408V10.7099H9.34892Z" fill="#DA291C"/>
</svg>
