<svg width="17" height="26" viewBox="0 0 17 26" fill="none" xmlns="http://www.w3.org/2000/svg">
<path d="M15.6591 0.727893V0.725207C15.1976 0.261276 14.5703 0.000268595 13.9159 0H2.4657C1.10574 0.00443182 0.00443182 1.10574 0 2.4657V23.5316C0.000268595 24.186 0.261276 24.8133 0.725207 25.2748C1.18605 25.7381 1.81228 25.999 2.4657 26H13.9186C14.572 25.999 15.1982 25.7381 15.6591 25.2748C16.1223 24.814 16.3833 24.1877 16.3843 23.5343V2.46839C16.3833 1.81496 16.1223 1.18873 15.6591 0.727893ZM8.19215 24.3267C7.82424 24.3267 7.52603 24.0284 7.52603 23.6605C7.52603 23.2926 7.82424 22.9944 8.19215 22.9944C8.56006 22.9944 8.85826 23.2926 8.85826 23.6605C8.85826 24.0284 8.56006 24.3267 8.19215 24.3267ZM14.4262 20.1446C14.4262 21.0347 13.7047 21.7562 12.8147 21.7562H3.56694C2.67689 21.7562 1.95537 21.0347 1.95537 20.1446V4.44525C1.95537 3.55519 2.67689 2.83368 3.56694 2.83368H12.8174C13.7074 2.83368 14.4289 3.55519 14.4289 4.44525L14.4262 20.1446Z" fill="#B2B3B3"/>
</svg>
