<svg width="10" height="13" viewBox="0 0 10 13" fill="none" xmlns="http://www.w3.org/2000/svg">
<path fill-rule="evenodd" clip-rule="evenodd" d="M2.81537 9.54648L6.13325 6.19734L6.13637 6.20049C6.34238 5.9894 6.51092 5.74364 6.62329 5.46954C6.72941 5.20803 6.78872 4.91502 6.78872 4.60311C6.78872 3.97928 6.53902 3.41846 6.13637 3.00888C5.73373 2.60244 5.17503 2.35039 4.55702 2.35039C3.93902 2.35039 3.38031 2.60244 2.97767 3.00888C2.57503 3.41531 2.32533 3.97928 2.32533 4.60311V12.2308H0V4.60311C0 3.33339 0.508764 2.1834 1.33589 1.34848C2.1599 0.516707 3.30228 0 4.56014 0C5.81801 0 6.95726 0.513557 7.78439 1.34848C8.6084 2.18025 9.12029 3.33024 9.12029 4.60311C9.12029 5.21748 8.99544 5.81296 8.77383 6.35802C8.54286 6.92199 8.20264 7.42924 7.78752 7.85143V7.85773L6.11453 9.54648H2.82785H2.81537Z" fill="url(#paint0_linear)"/>
<path fill-rule="evenodd" clip-rule="evenodd" d="M4.55078 3.66107C5.09699 3.66107 5.54021 4.10846 5.54021 4.65983C5.54021 5.21119 5.09699 5.65859 4.55078 5.65859C4.00456 5.65859 3.56134 5.21119 3.56134 4.65983C3.56134 4.10846 4.00456 3.66107 4.55078 3.66107Z" fill="black"/>
<defs>
<linearGradient id="paint0_linear" x1="4.55078" y1="0.00315059" x2="1.31729" y2="11.9605" gradientUnits="userSpaceOnUse">
<stop stop-color="#FF29FF"/>
<stop offset="1" stop-color="#32B9FF"/>
</linearGradient>
</defs>
</svg>
