<svg width="15" height="17" viewBox="0 0 25 27" fill="none" xmlns="http://www.w3.org/2000/svg">
<path d="M4.94792 11.4939H1.14264C0.51219 11.4939 0 12.0449 0 12.7257V25.0405C0 25.7203 0.511194 26.2722 1.14264 26.2722H4.94792C5.57936 26.2722 6.09133 25.7213 6.09133 25.0405V12.7257C6.09133 12.0459 5.58036 11.4939 4.94792 11.4939ZM3.04469 24.2189C2.41425 24.2189 1.90245 23.668 1.90245 22.9871C1.90245 22.3073 2.41325 21.7553 3.04469 21.7553C3.67514 21.7553 4.18733 22.3062 4.18733 22.9871C4.18733 23.6669 3.67614 24.2189 3.04469 24.2189ZM18.2732 4.18045C18.2732 6.3573 17.0372 7.57728 16.6886 9.03138H21.5288C23.1193 9.03138 24.3554 10.4554 24.3634 12.0126C24.3674 12.933 24.0038 13.9242 23.4371 14.5374L23.4324 14.5428C23.9005 15.7402 23.8235 17.4188 22.9889 18.6205C23.4022 19.95 22.9859 21.5813 22.21 22.4566C22.4142 23.3598 22.3168 24.1287 21.9174 24.7473C20.9464 26.2519 18.5392 26.2733 16.5034 26.2733H16.3677C14.07 26.2723 12.1899 25.3701 10.679 24.6452C9.91907 24.2812 8.92708 23.8301 8.17313 23.8151C7.86239 23.8097 7.61212 23.5348 7.61212 23.1997V12.2306C7.61212 12.0652 7.67319 11.9085 7.78175 11.7935C9.66711 9.7853 10.4779 7.65892 12.0216 5.99003C12.7267 5.22862 12.9826 4.07952 13.2296 2.96693C13.4417 2.01758 13.884 0.00183105 14.8441 0.00183105C15.9865 0.00183105 18.2713 0.412064 18.2713 4.18155L18.2732 4.18045Z" fill="#0000FF"/>
</svg>
