<svg width="16" height="22" viewBox="0 0 16 22" fill="none" xmlns="http://www.w3.org/2000/svg">
<path fill-rule="evenodd" clip-rule="evenodd" d="M4.94118 16.5882L10.7598 10.7696L10.7647 10.7745C11.1275 10.4118 11.4216 9.98039 11.6176 9.5049C11.8039 9.05392 11.9118 8.54412 11.9118 8C11.9118 6.91667 11.4755 5.93628 10.7647 5.23039C10.0539 4.51961 9.07353 4.08333 7.9951 4.08333C6.91176 4.08333 5.93137 4.51961 5.22549 5.23039C4.51471 5.94118 4.07843 6.92157 4.07843 8V21.2598H0V8C0 5.78922 0.897059 3.78922 2.34314 2.34314C3.78922 0.897059 5.78922 0 8 0C10.2108 0 12.2108 0.897059 13.6569 2.34314C15.1029 3.78922 16 5.78922 16 8C16 9.06863 15.7843 10.1029 15.3873 11.0539C14.9804 12.0392 14.3873 12.9167 13.6569 13.652V13.6618L10.7206 16.598H4.95098L4.94118 16.5882Z" fill="#B2B3B3"/>
<path fill-rule="evenodd" clip-rule="evenodd" d="M7.98993 6.35303C8.95072 6.35303 9.72523 7.13244 9.72523 8.08832C9.72523 9.04911 8.94582 9.82362 7.98993 9.82362C7.02915 9.82362 6.25464 9.0442 6.25464 8.08832C6.25464 7.12754 7.03405 6.35303 7.98993 6.35303Z" fill="#B2B3B3"/>
</svg>
