<svg width="90" height="27" viewBox="0 0 90 27" fill="none" xmlns="http://www.w3.org/2000/svg">
<path fill-rule="evenodd" clip-rule="evenodd" d="M13.6906 25.5129C6.96028 25.5129 1.50537 20.1346 1.50537 13.4987C1.50537 6.86274 6.96028 1.48438 13.6906 1.48438C20.421 1.48438 25.8759 6.86274 25.8759 13.4987C25.8759 20.1346 20.421 25.5129 13.6906 25.5129Z" fill="url(#paint0_linear)"/>
<path d="M13.6904 25.5126C6.96007 25.5126 1.50516 20.1342 1.50516 13.4983C1.50516 6.8624 6.96007 1.48404 13.6904 1.48404C20.4208 1.48404 25.8757 6.8624 25.8757 13.4983C25.8757 20.1342 20.4208 25.5126 13.6904 25.5126ZM13.6904 0C6.12691 0 0 6.04432 0 13.4983C0 20.9557 6.13034 27 13.6904 27C21.2539 27 27.3808 20.9557 27.3808 13.4983C27.3808 6.04432 21.2505 0 13.6904 0V0Z" fill="#8DC641"/>
<path d="M18.5077 8.62643L14.1603 14.8093V16.0297H18.47V18.3724H19.6289V16.0297H20.9729V14.8972H19.6289V8.62643H18.5077ZM18.47 10.4316V14.8939H15.4186L18.47 10.4316ZM6.67221 11.8379L6.68592 12.0982V12.1286H7.8345V12.0982C7.86879 10.6581 8.52708 9.69804 9.80938 9.69804C10.9134 9.69804 11.678 10.435 11.678 11.4965C11.678 12.0441 11.4825 12.5106 11.1088 12.9366C10.8105 13.278 10.4334 13.5653 9.84709 13.9338C9.73395 14.0048 9.34652 14.2448 9.34995 14.2414C8.25965 14.9141 7.72822 15.3097 7.28935 15.8438C6.75449 16.4895 6.47335 17.267 6.41163 18.3386L6.4082 18.369H12.8746V17.2298H7.83793C7.94422 16.8174 8.17051 16.4658 8.50994 16.148C8.78423 15.8877 9.09623 15.6748 9.61395 15.3705C9.67909 15.3333 9.91224 15.1947 9.96367 15.1677C9.98081 15.1575 9.99452 15.1508 10.0082 15.1406C11.0882 14.495 11.5614 14.1738 12.0243 13.6972C12.6414 13.065 12.9603 12.3517 12.9603 11.4694C12.9603 9.74537 11.7397 8.62305 9.86424 8.62305C7.94765 8.62305 6.67221 9.90763 6.67221 11.8345V11.8379Z" fill="white"/>
<path d="M36.3091 9.57696V12.9676H38.8771C40.2143 12.9676 40.8863 12.3997 40.8863 11.2672C40.8863 10.1415 40.1628 9.57696 38.716 9.57696H36.3091ZM86.0787 14.6139V10.2057L83.0547 14.6139H86.0787ZM89.0033 14.6139V16.01H87.6901V18.4271H86.065L86.0513 16.01H81.6695V14.3671L86.0958 8.15377H87.6901V14.6139H89.0033ZM80.9872 16.9566V18.4271H73.9312C73.9414 17.9707 74.0066 17.5549 74.1232 17.1763C74.2397 16.7977 74.3769 16.4765 74.5277 16.2095C74.682 15.9424 74.9049 15.672 75.2066 15.3948C75.5083 15.1176 75.7757 14.8911 76.0192 14.7119C76.2592 14.5328 76.5918 14.3029 77.0169 14.0189C77.0478 13.9986 77.1918 13.9074 77.4523 13.735C77.7129 13.5659 77.8741 13.4578 77.9323 13.4138C77.9906 13.3699 78.1243 13.2685 78.3301 13.1062C78.5358 12.9473 78.6729 12.8189 78.7346 12.7208C78.7998 12.6228 78.8855 12.4909 79.0021 12.3287C79.1152 12.163 79.1906 11.9974 79.2318 11.8284C79.2695 11.6593 79.2901 11.4768 79.2901 11.2841C79.2901 10.75 79.1392 10.3308 78.8409 10.0266C78.5392 9.72232 78.1346 9.56682 77.6238 9.56682C77.3289 9.56682 77.0718 9.61415 76.8558 9.70542C76.6398 9.79669 76.4683 9.91501 76.3449 10.0604C76.2215 10.2057 76.122 10.3917 76.0432 10.6215C75.9643 10.848 75.9129 11.0644 75.8889 11.2672C75.8649 11.47 75.8477 11.7101 75.8375 11.9805H74.1986V11.7202C74.1986 10.6249 74.5106 9.75275 75.1346 9.10707C75.7586 8.4614 76.6055 8.14025 77.6649 8.14025C78.6695 8.14025 79.4752 8.41745 80.0855 8.97523C80.6958 9.53302 81.0009 10.2733 81.0009 11.1928C81.0009 11.5613 80.9427 11.9095 80.8227 12.2408C80.7027 12.5721 80.5792 12.8358 80.4455 13.042C80.3118 13.2448 80.0855 13.4848 79.7598 13.7553C79.4341 14.0257 79.1941 14.215 79.0364 14.3232C78.8786 14.4313 78.5906 14.624 78.1655 14.9046C76.9346 15.6889 76.1975 16.3751 75.9506 16.9566H80.9838H80.9872ZM72.1414 10.919V12.1259H70.6054V16.0844C70.6054 16.3177 70.6088 16.4799 70.6191 16.5712C70.6294 16.6625 70.6568 16.7639 70.7083 16.8754C70.7563 16.987 70.842 17.0614 70.9654 17.1019C71.0888 17.1391 71.2568 17.1594 71.4728 17.1594C71.7471 17.1594 71.97 17.1493 72.138 17.129V18.4372C71.802 18.4778 71.4248 18.4981 71.0031 18.4981C70.7083 18.4981 70.4477 18.4744 70.2283 18.4339C70.0054 18.3899 69.8237 18.3392 69.6728 18.2817C69.5254 18.2243 69.402 18.1262 69.306 17.9842C69.2065 17.8423 69.1311 17.7273 69.0763 17.6361C69.0214 17.5448 68.9837 17.3825 68.9597 17.1493C68.9357 16.916 68.922 16.7402 68.922 16.6185V15.9864V15.8917V15.8038V15.7092V12.1292H67.6534V10.9224H68.922V8.66761H70.6054V10.9224H72.1414V10.919ZM64.9071 14.6578C64.7802 14.7255 64.6328 14.7863 64.4648 14.8404C64.2968 14.8945 64.1631 14.9283 64.0602 14.9418C63.9573 14.9553 63.7962 14.979 63.5733 15.006C63.3505 15.0365 63.2065 15.0567 63.1379 15.0635C62.9322 15.0939 62.7676 15.121 62.651 15.1446C62.5345 15.1683 62.387 15.2089 62.2156 15.2697C62.0442 15.3272 61.9105 15.3982 61.8179 15.4793C61.7253 15.5638 61.643 15.672 61.5745 15.814C61.5059 15.956 61.4716 16.1216 61.4716 16.3177C61.4716 16.676 61.5916 16.9532 61.8316 17.1459C62.0716 17.3386 62.411 17.4366 62.843 17.4366C63.5905 17.4366 64.1665 17.2372 64.5711 16.8383C64.7974 16.6151 64.9105 16.1858 64.9105 15.5435V14.6545L64.9071 14.6578ZM60.0659 13.2313C60.2442 11.5343 61.355 10.6824 63.4019 10.6824C64.3551 10.6824 65.1162 10.8683 65.6819 11.2368C66.2477 11.6053 66.5322 12.1766 66.5322 12.9541V16.7673C66.5322 16.9802 66.5597 17.1256 66.6145 17.2034C66.6694 17.2811 66.7757 17.3217 66.9299 17.3217C67.0465 17.3217 67.1768 17.3115 67.3139 17.2912V18.4541C66.8819 18.5623 66.5151 18.613 66.2202 18.613C65.5002 18.613 65.0888 18.3122 64.9791 17.7104C64.3379 18.3122 63.4499 18.613 62.3082 18.613C61.5196 18.613 60.8956 18.4102 60.4327 18.0079C59.9699 17.6056 59.7402 17.0614 59.7402 16.3718C59.7402 16.1588 59.7642 15.9593 59.8122 15.7768C59.8602 15.5909 59.9184 15.432 59.9802 15.2968C60.0453 15.1615 60.1482 15.0365 60.2887 14.9181C60.4327 14.8032 60.5493 14.7052 60.6419 14.6274C60.7345 14.5497 60.8887 14.4787 61.0979 14.4111C61.3105 14.3435 61.4682 14.2927 61.571 14.2589C61.6739 14.2251 61.8522 14.188 62.1093 14.1508C62.3665 14.1102 62.5345 14.0865 62.6202 14.0696C62.7025 14.0561 62.8773 14.0325 63.1448 14.0054C63.7448 13.9277 64.1528 13.8634 64.3688 13.8093C64.5848 13.7553 64.7322 13.6741 64.8111 13.5693C64.8796 13.4916 64.9139 13.3124 64.9139 13.0318C64.9139 12.2746 64.3928 11.896 63.3505 11.896C62.7985 11.896 62.3973 11.9974 62.1402 12.2002C61.883 12.4031 61.7219 12.7479 61.6533 13.2347H60.059L60.0659 13.2313ZM52.0978 10.9156H53.9287L55.8761 16.6929L57.7516 10.9156H59.4933L56.7607 18.4372H54.8715L52.0978 10.9156ZM50.9012 18.4237H49.2212V10.9156H50.9012V18.4237ZM50.9012 9.64795H49.2212V8.01855H50.9012V9.64795ZM48.1549 10.7669V12.3523C47.86 12.3219 47.6612 12.3084 47.5652 12.3084C46.0977 12.3084 45.3675 13.2448 45.3675 15.1176V18.4203H43.7011V10.9123H45.2783V12.4098C45.82 11.2943 46.6703 10.7365 47.8326 10.7365L48.1583 10.7669H48.1549ZM34.4645 8.05912H39.0245C40.156 8.05912 41.0474 8.3228 41.7023 8.85354C42.3571 9.38089 42.6829 10.1685 42.6829 11.2165C42.6829 12.207 42.3777 12.9913 41.7674 13.5659C41.1571 14.144 40.3274 14.4313 39.2714 14.4313H36.3056V18.4203H34.4611V8.05912H34.4645Z" fill="white"/>
<defs>
<linearGradient id="paint0_linear" x1="-1.2718" y1="13.4987" x2="28.6565" y2="13.4987" gradientUnits="userSpaceOnUse">
<stop stop-color="#333333"/>
<stop offset="1"/>
</linearGradient>
</defs>
</svg>
