<svg width="16" height="15" viewBox="0 0 16 15" fill="none" xmlns="http://www.w3.org/2000/svg">
<path d="M10.9922 3.04688C10.8828 2.9375 10.7188 2.9375 10.6094 3.04688L4.64844 9.00781L4.375 11.5508C4.32031 11.8789 4.62109 12.1797 4.94922 12.125L7.49219 11.8516L13.4531 5.89062C13.5625 5.78125 13.5625 5.61719 13.4531 5.50781L10.9922 3.04688ZM15.4219 2.41797L14.082 1.07812C13.6719 0.667969 12.9883 0.667969 12.5781 1.07812L11.6211 2.03516C11.5117 2.14453 11.5117 2.30859 11.6211 2.41797L14.082 4.87891C14.1914 4.98828 14.3555 4.98828 14.4648 4.87891L15.4219 3.92188C15.832 3.51172 15.832 2.82812 15.4219 2.41797ZM10.5 10.2383V13H1.75V4.25H8.01172C8.12109 4.25 8.20312 4.22266 8.25781 4.16797L9.35156 3.07422C9.54297 2.85547 9.40625 2.5 9.10547 2.5H1.3125C0.574219 2.5 0 3.10156 0 3.8125V13.4375C0 14.1758 0.574219 14.75 1.3125 14.75H10.9375C11.6484 14.75 12.25 14.1758 12.25 13.4375V9.14453C12.25 8.84375 11.8945 8.70703 11.6758 8.89844L10.582 9.99219C10.5273 10.0469 10.5 10.1289 10.5 10.2383Z" fill="#B2B3B3"/>
</svg>
