<svg width="11" height="15" viewBox="0 0 11 15" fill="none" xmlns="http://www.w3.org/2000/svg">
<path fill-rule="evenodd" clip-rule="evenodd" d="M3.42571 11.7097L7.41714 7.6129C7.66857 7.35484 7.85714 7.06452 8.01429 6.70968C8.14 6.3871 8.20286 6.03226 8.20286 5.64516C8.20286 4.87097 7.88857 4.19355 7.41714 3.67742C6.94571 3.19355 6.25429 2.87097 5.5 2.87097C4.74571 2.87097 4.08571 3.19355 3.58286 3.67742C3.11143 4.16129 2.79714 4.87097 2.79714 5.64516V15H0V5.64516C0 4.09677 0.628571 2.67742 1.60286 1.64516C2.60857 0.612903 3.96 0 5.5 0C7.00857 0 8.39143 0.645161 9.39714 1.64516C10.4029 2.67742 11 4.06452 11 5.64516C11 6.3871 10.8429 7.12903 10.5914 7.80645C10.3086 8.48387 9.9 9.12903 9.39714 9.64516L7.38571 11.7097H3.42571ZM5.53143 4.48387C6.19143 4.48387 6.72571 5.03226 6.72571 5.70968C6.72571 6.3871 6.19143 6.93548 5.53143 6.93548C4.87143 6.93548 4.33714 6.3871 4.33714 5.70968C4.33714 5.03226 4.87143 4.48387 5.53143 4.48387Z" fill="black"/>
</svg>
