<svg width="339" height="193" viewBox="0 0 339 193" fill="none" xmlns="http://www.w3.org/2000/svg">
<path fill-rule="evenodd" clip-rule="evenodd" d="M153.02 16.9917C127.814 15.1749 113.128 8.66973 95.344 30.2817C74.1348 56.0561 88.216 62.3503 106.732 79.0884C119.394 90.5335 148.627 102.667 145.077 118.049C142.596 128.793 143.913 131.102 160.434 136.173C182.999 143.099 218.423 118.323 231.358 99.9554C250.063 73.3935 267.856 32.3901 233.531 28.1616C160.842 19.206 221.875 43.2115 153.019 16.9926L153.02 16.9917Z" fill="#B8DFED"/>
<path fill-rule="evenodd" clip-rule="evenodd" d="M129.151 113.917C86.3239 114.736 42.2219 92.0856 46.4648 51.0931C47.1727 44.2502 52.8939 38.233 60.9597 54.829C68.2886 69.9087 102.026 90.1031 130.831 86.5934L132.396 78.7132V63.6091C132.396 38.6268 152.648 18.3745 177.63 18.3745C202.613 18.3745 222.865 38.6268 222.865 63.6091V78.7132L226.612 98.8922C252.144 95.8424 278.879 62.1389 280.302 45.4126C281.828 27.485 288.367 31.6989 291.047 38.0248C307.101 75.9196 277.35 118.188 241.968 128.729L221.355 157.784H129.294L129.152 113.916L129.151 113.917Z" fill="white" stroke="#999999" stroke-width="3" stroke-miterlimit="22.9256" stroke-linecap="round" stroke-linejoin="round"/>
<path d="M263.073 187.314H92.1884V192.066H263.073V187.314Z" fill="#999999"/>
<path d="M153.977 88.3404C155.954 88.3404 157.556 86.7378 157.556 84.761C157.556 82.7842 155.954 81.1816 153.977 81.1816C152 81.1816 150.397 82.7842 150.397 84.761C150.397 86.7378 152 88.3404 153.977 88.3404Z" fill="#FFDDE9"/>
<path d="M159.091 76.9203C162.198 76.9203 164.717 74.4013 164.717 71.2941C164.717 68.1869 162.198 65.668 159.091 65.668C155.984 65.668 153.465 68.1869 153.465 71.2941C153.465 74.4013 155.984 76.9203 159.091 76.9203Z" fill="black"/>
<path d="M196.169 76.9193C199.276 76.9193 201.795 74.4004 201.795 71.2931C201.795 68.1859 199.276 65.667 196.169 65.667C193.062 65.667 190.543 68.1859 190.543 71.2931C190.543 74.4004 193.062 76.9193 196.169 76.9193Z" fill="black"/>
<path d="M201.284 88.3404C203.26 88.3404 204.863 86.7378 204.863 84.761C204.863 82.7842 203.26 81.1816 201.284 81.1816C199.307 81.1816 197.704 82.7842 197.704 84.761C197.704 86.7378 199.307 88.3404 201.284 88.3404Z" fill="#FFDDE9"/>
<path d="M169.435 82.6914C175.156 86.3613 180.81 86.3613 186.398 82.6914" stroke="#2B2A29" stroke-width="2" stroke-miterlimit="22.9256" stroke-linecap="round" stroke-linejoin="round"/>
<path fill-rule="evenodd" clip-rule="evenodd" d="M111.196 157.786H116.166L113.838 161.52H108.666L111.196 157.786ZM117.298 157.786H121.703L119.586 161.52H114.97L117.298 157.786ZM122.835 157.786H127.24L125.334 161.52H120.718L122.835 157.786H122.835ZM128.371 157.786H132.776L131.081 161.52H126.466L128.371 157.786ZM133.907 157.786H138.312L136.829 161.52H132.213L133.908 157.786H133.907ZM139.443 157.786H143.848L142.577 161.52H137.961L139.444 157.786H139.443ZM144.979 157.786H149.384L148.325 161.52H143.709L144.98 157.786H144.979ZM150.515 157.786H154.92L154.072 161.52H149.455L150.514 157.786H150.515ZM156.052 157.786H160.457L159.821 161.52H155.205L156.053 157.786H156.052ZM161.588 157.786H165.993L165.57 161.52H160.953L161.588 157.786ZM167.125 157.786H171.53L171.318 161.52H166.701L167.125 157.786ZM172.661 157.786H177.066V161.52H172.45L172.661 157.786ZM178.197 157.786H182.602L182.815 161.52H178.198V157.786H178.197ZM183.734 157.786H188.139L188.562 161.52H183.945L183.733 157.786H183.734ZM189.27 157.786H193.675L194.311 161.52H189.694L189.27 157.786ZM194.807 157.786H199.212L200.06 161.52H195.443L194.808 157.786H194.807ZM200.343 157.786H204.748L205.807 161.52H201.191L200.342 157.786H200.343ZM205.88 157.786H210.285L211.556 161.52H206.94L205.881 157.786H205.88ZM211.416 157.786H215.821L217.304 161.52H212.688L211.417 157.786H211.416ZM216.952 157.786H221.357L223.051 161.52H218.436L216.953 157.786H216.952ZM222.488 157.786H226.893L228.799 161.52H224.183L222.488 157.786ZM228.024 157.786H232.429L234.546 161.52H229.93L228.025 157.786H228.024ZM233.561 157.786H237.965L240.294 161.52H235.678L233.561 157.786ZM239.097 157.786H244.068L246.597 161.52H241.425L239.097 157.786ZM247.364 162.651L250.43 167.177H244.953L242.131 162.651H247.365H247.364ZM243.822 167.177H238.885L236.32 162.651H241L243.822 167.177ZM237.754 167.177H232.817L230.508 162.651H235.188L237.754 167.177ZM231.686 167.177H226.749L224.696 162.651H229.376L231.686 167.177ZM225.618 167.177H220.682L218.885 162.651H223.565L225.618 167.177ZM219.55 167.177H214.614L213.073 162.651H217.753L219.55 167.177ZM213.482 167.177H208.545L207.261 162.651H211.941L213.482 167.177ZM207.413 167.177H202.476L201.449 162.651H206.129L207.412 167.177H207.413ZM201.344 167.177H196.407L195.637 162.651H200.318L201.345 167.177H201.344ZM195.276 167.177H190.337L189.824 162.651H194.505L195.276 167.177ZM189.206 167.177H184.269L184.012 162.651H188.693L189.206 167.177ZM183.137 167.177H178.199V162.651H182.88L183.137 167.177ZM177.067 167.177H172.129L172.386 162.651H177.067V167.177ZM170.998 167.177H166.06L166.574 162.651H171.255L170.998 167.177ZM164.929 167.177H159.991L160.761 162.651H165.442L164.929 167.177ZM158.859 167.177H153.922L154.949 162.651H159.63L158.86 167.177H158.859ZM152.79 167.177H147.853L149.137 162.651H153.817L152.789 167.177H152.79ZM146.721 167.177H141.784L143.325 162.651H148.005L146.721 167.177ZM140.653 167.177H135.716L137.513 162.651H142.193L140.653 167.177ZM134.585 167.177H129.648L131.702 162.651H136.382L134.585 167.177ZM128.517 167.177H123.581L125.89 162.651H130.57L128.517 167.177ZM122.449 167.177H117.513L120.078 162.651H124.758L122.449 167.177ZM116.381 167.177H111.445L114.266 162.651H118.947L116.381 167.177ZM110.313 167.177H104.836L107.902 162.651H113.136L110.314 167.177H110.313ZM251.197 168.308L254.646 173.399H248.834L245.659 168.308H251.198H251.197ZM247.701 173.399H242.413L239.527 168.308H244.528L247.702 173.399H247.701ZM241.281 173.399H235.993L233.395 168.308H238.395L241.281 173.399ZM234.861 173.399H229.573L227.263 168.308H232.263L234.861 173.399ZM228.441 173.399H223.152L221.131 168.308H226.131L228.441 173.399ZM222.02 173.399H216.731L214.998 168.308H220L222.021 173.399H222.02ZM215.599 173.399H210.309L208.865 168.308H213.867L215.599 173.399ZM209.178 173.399H203.887L202.731 168.308H207.733L209.177 173.399H209.178ZM202.756 173.399H197.465L196.599 168.308H201.601L202.756 173.399ZM196.334 173.399H191.044L190.466 168.308H195.468L196.335 173.399H196.334ZM189.912 173.399H184.621L184.332 168.308H189.334L189.912 173.399ZM183.489 173.399H178.198V168.308H183.2L183.489 173.399ZM177.066 173.399H171.775L172.064 168.308H177.066V173.399ZM170.644 173.399H165.352L165.93 168.308H170.932L170.643 173.399H170.644ZM164.221 173.399H158.931L159.797 168.308H164.799L164.222 173.399H164.221ZM157.799 173.399H152.509L153.664 168.308H158.665L157.799 173.399ZM151.377 173.399H146.087L147.531 168.308H152.532L151.376 173.399H151.377ZM144.955 173.399H139.665L141.398 168.308H146.399L144.955 173.399ZM138.533 173.399H133.244L135.265 168.308H140.267L138.534 173.399H138.533ZM132.113 173.399H126.823L129.133 168.308H134.134L132.113 173.399ZM125.692 173.399H120.403L123.001 168.308H128.002L125.692 173.399ZM119.272 173.399H113.983L116.869 168.308H121.87L119.272 173.399ZM112.851 173.399H107.563L110.738 168.308H115.738L112.852 173.399H112.851ZM106.431 173.399H100.62L104.069 168.308H109.607L106.432 173.399H106.431ZM255.41 174.531L258.859 179.622H252.711L249.537 174.531H255.411H255.41ZM251.58 179.622H245.939L243.053 174.531H248.406L251.58 179.622ZM244.808 179.622H239.168L236.57 174.531H241.922L244.808 179.622ZM238.036 179.622H232.395L230.085 174.531H235.438L238.036 179.622ZM231.263 179.622H225.621L223.6 174.531H228.954L231.263 179.622ZM224.49 179.622H218.848L217.116 174.531H222.469L224.491 179.622H224.49ZM217.717 179.622H212.074L210.63 174.531H215.984L217.717 179.622ZM210.943 179.622H205.299L204.143 174.531H209.497L210.942 179.622H210.943ZM204.168 179.622H198.525L197.657 174.531H203.012L204.168 179.622ZM197.393 179.622H191.749L191.17 174.531H196.525L197.392 179.622H197.393ZM190.618 179.622H184.974L184.685 174.531H190.04L190.618 179.622ZM183.842 179.622H178.198V174.531H183.553L183.842 179.622ZM177.066 179.622H171.422L171.711 174.531H177.066V179.622ZM170.291 179.622H164.646L165.225 174.531H170.579L170.291 179.622ZM163.515 179.622H157.871L158.738 174.531H164.092L163.514 179.622H163.515ZM156.74 179.622H151.097L152.253 174.531H157.607L156.74 179.622ZM149.965 179.622H144.322L145.766 174.531H151.12L149.964 179.622H149.965ZM143.19 179.622H137.548L139.28 174.531H144.635L143.19 179.622ZM136.416 179.622H130.775L132.796 174.531H138.15L136.417 179.622H136.416ZM129.643 179.622H124.001L126.311 174.531H131.664L129.643 179.622ZM122.87 179.622H117.228L119.826 174.531H125.179L122.87 179.622ZM116.097 179.622H110.456L113.342 174.531H118.695L116.097 179.622ZM109.325 179.622H103.684L106.858 174.531H112.211L109.325 179.622ZM102.553 179.622H96.4057L99.8547 174.531H105.728L102.554 179.622H102.553ZM259.626 180.754L263.075 185.844H256.592L253.418 180.754H259.626ZM255.46 185.844H249.468L246.582 180.754H252.287L255.46 185.844ZM248.336 185.844H242.343L239.745 180.754H245.45L248.336 185.844ZM241.212 185.844H235.218L232.909 180.754H238.615L241.213 185.844H241.212ZM234.087 185.844H228.093L226.071 180.754H231.777L234.087 185.844ZM226.961 185.844H220.967L219.234 180.754H224.94L226.961 185.844ZM219.835 185.844H213.84L212.396 180.754H218.102L219.835 185.844ZM212.708 185.844H206.713L205.557 180.754H211.264L212.708 185.844ZM205.581 185.844H199.585L198.717 180.754H204.425L205.58 185.844H205.581ZM198.454 185.844H192.457L191.878 180.754H197.587L198.454 185.844ZM191.326 185.844H185.329L185.04 180.754H190.748L191.327 185.844H191.326ZM184.197 185.844H178.199V180.754H183.908L184.197 185.844ZM177.068 185.844H171.07L171.359 180.754H177.068V185.844ZM169.938 185.844H163.941L164.52 180.754H170.228L169.939 185.844H169.938ZM162.81 185.844H156.812L157.68 180.754H163.388L162.81 185.844ZM155.682 185.844H149.685L150.84 180.754H156.548L155.681 185.844H155.682ZM148.555 185.844H142.559L144.003 180.754H149.71L148.555 185.844ZM141.428 185.844H135.432L137.165 180.754H142.871L141.428 185.844ZM134.3 185.844H128.306L130.327 180.754H136.033L134.3 185.844ZM127.174 185.844H121.181L123.49 180.754H129.196L127.174 185.844ZM120.049 185.844H114.055L116.654 180.754H122.359L120.05 185.844H120.049ZM112.924 185.844H106.931L109.817 180.754H115.522L112.924 185.844ZM105.8 185.844H99.8068L102.981 180.754H108.685L105.8 185.844ZM98.6752 185.844H92.1918L95.6408 180.754H101.849L98.6752 185.844Z" fill="#999999"/>
<path d="M128.887 50.6232C128.887 23.7037 150.71 1.87988 177.63 1.87988C204.55 1.87988 226.374 23.7028 226.374 50.6232" stroke="#999999" stroke-width="2" stroke-miterlimit="22.9256" stroke-linecap="round" stroke-linejoin="round"/>
<path d="M228.121 50.624H224.626C222.144 50.624 220.132 52.6359 220.132 55.1177V70.5016C220.132 72.9833 222.144 74.9952 224.626 74.9952H228.121C230.603 74.9952 232.615 72.9833 232.615 70.5016V55.1177C232.615 52.6359 230.603 50.624 228.121 50.624Z" fill="#999999"/>
<path d="M130.635 50.624H127.14C124.658 50.624 122.646 52.6359 122.646 55.1177V70.5016C122.646 72.9833 124.658 74.9952 127.14 74.9952H130.635C133.117 74.9952 135.129 72.9833 135.129 70.5016V55.1177C135.129 52.6359 133.117 50.624 130.635 50.624Z" fill="#999999"/>
<path d="M181.125 104.455C201.627 104.455 219.172 91.7979 226.374 73.8721" stroke="#999999" stroke-width="2" stroke-miterlimit="22.9256"/>
<path d="M172.28 103.687L172.28 105.222C172.28 106.312 173.164 107.195 174.253 107.195L181.007 107.195C182.097 107.195 182.98 106.312 182.98 105.222L182.98 103.687C182.98 102.598 182.097 101.714 181.007 101.714L174.253 101.714C173.164 101.714 172.28 102.598 172.28 103.687Z" fill="#999999"/>
<path fill-rule="evenodd" clip-rule="evenodd" d="M227.301 133.625C257.054 155.486 305.833 158.132 326.371 122.468C329.799 116.515 328.228 107.345 313.997 118.356C301.587 127.958 260.446 118.756 235.763 105.132C223.161 98.1757 224.804 103.696 227.3 133.626L227.301 133.625Z" fill="white"/>
<path d="M227.301 133.626C257.054 155.487 305.833 158.133 326.371 122.469C329.799 116.516 329.216 108.758 313.997 118.356C302.51 125.6 264.469 120.203 240.913 108.071" stroke="#999999" stroke-width="3" stroke-miterlimit="22.9256" stroke-linecap="round" stroke-linejoin="round"/>
<path fill-rule="evenodd" clip-rule="evenodd" d="M221.701 114.37C252.986 133.974 256.108 167.9 221.254 180.788C214.81 183.171 200.139 183.515 212.871 170.801C224.697 158.992 227.424 145.342 203.632 135.587L221.701 114.369V114.37Z" fill="white"/>
<path d="M221.701 114.369C252.986 133.973 256.108 167.899 221.254 180.788C214.81 183.17 200.139 183.514 212.871 170.8C224.697 158.991 227.424 145.341 203.632 135.586" stroke="#999999" stroke-width="3" stroke-miterlimit="22.9256" stroke-linecap="round" stroke-linejoin="round"/>
<path fill-rule="evenodd" clip-rule="evenodd" d="M142.909 117.006C113.156 143.176 56.2496 171.566 35.7121 138.877C32.2839 133.42 32.8669 125.579 48.086 132.972C62.2858 139.87 112.008 115.39 129.842 94.2832L142.909 117.006Z" fill="white"/>
<path d="M125.163 130.59C94.3788 151.232 52.6612 165.853 35.7121 138.875C32.2839 133.419 32.8669 125.577 48.086 132.97C62.2858 139.868 112.008 115.389 129.842 94.2817" stroke="#999999" stroke-width="3" stroke-miterlimit="22.9256" stroke-linecap="round" stroke-linejoin="round"/>
<path fill-rule="evenodd" clip-rule="evenodd" d="M325.392 130.941C324.847 132.047 323.508 132.502 322.402 131.957L310.91 126.293C309.804 125.748 309.349 124.409 309.894 123.303L319.51 103.793C320.055 102.686 321.393 102.232 322.5 102.777L333.995 108.443C335.102 108.988 335.556 110.327 335.011 111.433L325.392 130.941Z" fill="white"/>
<path fill-rule="evenodd" clip-rule="evenodd" d="M338.816 107.567L338.818 107.563C338.528 106.704 337.909 105.995 337.096 105.594L322.866 98.5813C321.174 97.7539 319.13 98.4482 318.292 100.136L305.39 126.315C304.989 127.128 304.93 128.067 305.223 128.925C305.513 129.784 306.131 130.491 306.942 130.892L321.174 137.907C321.986 138.306 322.925 138.366 323.782 138.072C324.64 137.783 325.348 137.165 325.749 136.353L338.651 110.174C339.05 109.362 339.109 108.423 338.816 107.567ZM315.083 132.32C314.626 132.095 314.438 131.542 314.663 131.084C314.888 130.627 315.441 130.439 315.899 130.665C316.356 130.891 316.544 131.444 316.319 131.901C316.093 132.358 315.54 132.546 315.083 132.321V132.32ZM325.392 130.941C324.847 132.048 323.508 132.502 322.402 131.957L310.91 126.293C309.804 125.748 309.349 124.409 309.894 123.303L319.51 103.793C320.055 102.687 321.394 102.232 322.5 102.777L333.996 108.443C335.102 108.988 335.556 110.327 335.011 111.433L325.392 130.941Z" fill="#999999"/>
<path d="M300.053 38.7005C300.544 38.5466 301.041 38.4307 301.543 38.3502L300.37 34.6024C329.096 25.6088 299.382 34.912 328.054 25.9355L335.581 49.9763C336.713 53.5919 334.692 57.4537 331.077 58.5862L316.507 63.1478C312.892 64.2802 309.03 62.2588 307.897 58.6441L307.865 58.5382C307.406 58.7573 306.931 58.9465 306.441 59.0995C300.816 60.8602 294.809 57.7171 293.048 52.0937C291.288 46.4694 294.431 40.4621 300.054 38.7014L300.053 38.7005ZM305.527 56.1846C306.021 56.0307 306.491 55.8279 306.939 55.5817L302.468 41.3049C301.962 41.3574 301.458 41.4597 300.966 41.6145C296.949 42.8719 294.704 47.1637 295.961 51.1803C297.219 55.1978 301.511 57.442 305.527 56.1846Z" fill="#999999"/>
<path fill-rule="evenodd" clip-rule="evenodd" d="M20.6968 96.2509L2.91579 118.058L35.9195 144.969L53.7005 123.162C54.4953 122.185 54.3495 120.75 53.3746 119.952L23.9068 95.9241C22.93 95.1293 21.4943 95.275 20.6968 96.25V96.2509ZM19.481 137.452C19.1551 137.186 18.6762 137.235 18.411 137.56L16.4891 139.918C16.2239 140.243 16.2728 140.722 16.5978 140.988C16.9237 141.253 17.4025 141.204 17.6678 140.879L19.5896 138.522C19.8549 138.196 19.806 137.717 19.481 137.452ZM12.4083 131.685C12.0824 131.42 11.6044 131.469 11.3383 131.794L9.41641 134.151C9.15117 134.477 9.20005 134.956 9.52504 135.221C9.85093 135.486 10.3298 135.437 10.595 135.112L12.5169 132.755C12.7821 132.429 12.7333 131.951 12.4083 131.685ZM26.5528 143.219C26.2269 142.954 25.749 143.003 25.4828 143.328L23.561 145.685C23.2957 146.01 23.3446 146.49 23.6696 146.755C23.9946 147.02 24.4744 146.971 24.7396 146.646L26.6615 144.289C26.9267 143.963 26.8778 143.484 26.5528 143.219ZM0.839143 124.214L2.6071 125.656L3.08779 125.067C3.88351 124.091 5.32105 123.944 6.29781 124.741C7.27458 125.537 7.42033 126.974 6.62371 127.951L6.14302 128.54L9.67893 131.424L10.1596 130.834C10.9553 129.858 12.3929 129.712 13.3696 130.508C14.3455 131.304 14.4922 132.742 13.6955 133.718L13.2148 134.308L16.7508 137.191L17.2315 136.602C18.0272 135.625 19.4647 135.479 20.4415 136.276C21.4182 137.071 21.564 138.509 20.7674 139.486L20.2867 140.075L23.8226 142.958L24.3033 142.369C25.099 141.392 26.5365 141.246 27.5133 142.042C28.4901 142.838 28.6358 144.275 27.8401 145.252L27.3594 145.842L30.306 148.244C31.2828 149.039 32.7185 148.893 33.516 147.918L34.9581 146.15L1.95441 119.239L0.512346 121.007C-0.282465 121.984 -0.13672 123.419 0.838237 124.217L0.839143 124.214ZM5.33644 125.919C5.01055 125.653 4.53257 125.702 4.26643 126.027L2.34458 128.385C2.07934 128.711 2.12822 129.189 2.45321 129.455C2.7791 129.72 3.25798 129.671 3.52322 129.346L5.44507 126.989C5.71031 126.663 5.66142 126.185 5.33644 125.919ZM39.1838 113.289H39.1847C40.4865 114.35 40.6811 116.266 39.6202 117.567C38.924 118.421 37.8196 118.832 36.7351 118.64C36.9551 119.936 36.6039 121.267 35.7728 122.285C34.1805 124.238 31.3063 124.53 29.3537 122.938C27.4011 121.345 27.1087 118.471 28.701 116.519C29.4116 115.647 30.4192 115.069 31.529 114.895L31.2149 114.638C30.889 114.373 30.841 113.893 31.1063 113.568C31.3715 113.242 31.8504 113.194 32.1763 113.46L36.3015 116.824C36.9524 117.354 37.9101 117.256 38.4415 116.606C38.972 115.956 38.8751 114.997 38.2243 114.466L37.0456 113.505C33.7912 110.853 29.0034 111.34 26.3501 114.593C23.6968 117.847 24.1838 122.637 27.4373 125.29C30.6907 127.943 35.4813 127.456 38.1337 124.202C39.1223 122.99 39.7125 121.5 39.8247 119.941C39.8356 119.786 39.8954 119.636 39.994 119.515C40.2593 119.189 40.7381 119.141 41.064 119.406C41.256 119.562 41.3591 119.802 41.3419 120.048C41.208 121.922 40.4992 123.71 39.3115 125.166C36.1268 129.071 30.3775 129.656 26.4714 126.471C22.5661 123.286 21.9813 117.537 25.166 113.631C28.3507 109.726 34.0999 109.141 38.0061 112.325L39.1847 113.287L39.1838 113.289ZM34.1606 117.043C32.8588 115.981 30.9424 116.175 29.8815 117.478C28.8196 118.78 29.0142 120.696 30.3169 121.757C31.6186 122.819 33.5351 122.625 34.596 121.322C35.6579 120.02 35.4632 118.104 34.1606 117.043Z" fill="#999999"/>
<path fill-rule="evenodd" clip-rule="evenodd" d="M38.9776 65.6141L37.9845 59.0764C37.9483 58.8374 37.9673 58.5939 38.0443 58.3667L44.6282 38.5435L52.5111 41.1343L45.9435 60.9068C45.8557 61.1657 45.7 61.3984 45.4927 61.5803L40.2857 66.0993C39.8176 66.504 39.069 66.2297 38.9776 65.615V65.6141Z" fill="#999999"/>
<path fill-rule="evenodd" clip-rule="evenodd" d="M51.0863 25.5737L55.0739 26.8854C56.0362 27.2022 56.7006 28.4949 56.3938 29.4373L53.1575 39.1824L45.2736 36.5888L46.293 33.52L44.7948 33.0321C44.4354 32.9144 44.0488 33.1135 43.9293 33.4693L43.1372 35.8854L42.4963 37.8408L39.8168 46.0261C39.5805 46.7448 38.8083 47.1386 38.0868 46.9033C37.7275 46.7847 37.4486 46.5303 37.2911 46.218C37.1336 45.9057 37.0947 45.5336 37.2115 45.1715L41.3267 32.6129C41.9143 30.8187 43.8533 29.8356 45.6475 30.4231L47.1593 30.9156L48.5108 26.8465C48.8213 25.9023 50.1231 25.2569 51.0854 25.5728L51.0863 25.5737Z" fill="#999999"/>
<path fill-rule="evenodd" clip-rule="evenodd" d="M133.398 122.302C104.668 145.49 89.7656 166.234 128.223 182.58C134.545 185.267 149.367 185.923 129.661 166.669C122.491 159.663 135.244 151.757 151.431 135.973L133.399 122.302H133.398Z" fill="white"/>
<path d="M133.398 122.302C104.668 145.49 89.7656 166.234 128.223 182.58C134.545 185.267 149.367 185.923 129.661 166.669C122.491 159.663 135.244 151.757 151.431 135.973" stroke="#999999" stroke-width="3" stroke-miterlimit="22.9256" stroke-linecap="round" stroke-linejoin="round"/>
</svg>
