<svg width="10" height="15" viewBox="0 0 10 15" fill="none" xmlns="http://www.w3.org/2000/svg">
<path d="M8.89386 8.65608L4.41174 7.63212C3.07585 7.3265 2.23935 5.98748 2.54212 4.639C2.84488 3.29052 4.17141 2.44614 5.5073 2.75175C6.8432 3.05737 7.67969 4.3964 7.37693 5.74488C7.22711 6.41912 6.81823 6.96733 6.27825 7.31075C6.27825 7.31075 6.27825 7.31075 6.27513 7.3139C6.25952 7.3265 6.25016 7.34541 6.25016 7.36431C6.25016 7.39267 6.26889 7.41787 6.29698 7.42417L8.29146 7.87787C8.33828 7.88732 8.38822 7.87157 8.41631 7.83061C8.96565 7.09651 9.2965 6.18282 9.2965 5.19351C9.2965 2.86203 7.49242 0.959031 5.21703 0.823553C5.19518 0.823553 5.07345 0.817253 5.03287 0.817253C4.02471 0.8015 3.00406 1.09451 2.11451 1.72149C-0.129673 3.30627 -0.67277 6.42857 0.897218 8.69389L4.88305 14.4407C4.89866 14.4627 4.92675 14.4785 4.95796 14.4785C4.98918 14.4785 5.01727 14.4627 5.03287 14.4407L8.94692 8.80416C8.95628 8.78841 8.96253 8.77266 8.96253 8.7506C8.96253 8.70649 8.93131 8.66868 8.89074 8.65923L8.89386 8.65608Z" fill="#FABC26"/>
</svg>
