<svg width="18" height="19" viewBox="0 0 18 19" fill="none" xmlns="http://www.w3.org/2000/svg">
<path d="M8.99145 0C10.2906 0 11.4701 0.526617 12.3248 1.376C13.1795 2.22538 13.7094 3.39753 13.7094 4.68859C13.7094 5.97965 13.1795 7.1518 12.3248 8.00118C11.4701 8.85057 10.2906 9.37718 8.99145 9.37718C7.69231 9.37718 6.51282 8.85057 5.65812 8.00118C4.80342 7.1518 4.2735 5.97965 4.2735 4.68859C4.2735 3.39753 4.80342 2.22538 5.65812 1.376C6.51282 0.526617 7.69231 0 8.99145 0V0ZM17.9829 18.3127C17.9829 18.6864 17.6752 18.9922 17.2991 18.9922C16.9231 18.9922 16.6154 18.6864 16.6154 18.3127V16.6139C16.6154 15.3229 16.0855 14.1337 15.2137 13.2843C14.359 12.435 13.1624 11.8914 11.8632 11.8914H6.11966C4.82051 11.8914 3.62393 12.418 2.76923 13.2843C1.91453 14.1337 1.36752 15.3229 1.36752 16.6139V18.3127C1.36752 18.6864 1.05983 18.9922 0.683761 18.9922C0.307692 18.9922 0 18.6864 0 18.3127V16.6139C0 14.9491 0.683761 13.4202 1.79487 12.316C2.90598 11.2118 4.42735 10.5323 6.11966 10.5323H11.8632C13.5556 10.5323 15.0769 11.2118 16.188 12.316C17.2991 13.4202 17.9829 14.9491 17.9829 16.6139V18.3127ZM11.3504 2.32731C10.7521 1.73274 9.91453 1.35901 8.99145 1.35901C8.06838 1.35901 7.23077 1.73274 6.63248 2.32731C6.03419 2.92188 5.65812 3.75427 5.65812 4.6716C5.65812 5.58894 6.03419 6.42133 6.63248 7.0159C7.23077 7.61047 8.06838 7.9842 8.99145 7.9842C9.91453 7.9842 10.7521 7.61047 11.3504 7.0159C11.9487 6.42133 12.3248 5.58894 12.3248 4.6716C12.3248 3.75427 11.9487 2.92188 11.3504 2.32731Z" fill="#B2B3B3"/>
</svg>
