<svg width="55" height="17" viewBox="0 0 55 17" fill="none" xmlns="http://www.w3.org/2000/svg">
<path d="M19.3379 16.5783L22.1058 0.330493H26.5344L23.7624 16.5783H19.3338H19.3379ZM0.0578362 0.330493L0 0.669248C1.75161 1.09476 3.31319 1.70617 4.68473 2.47043L8.61346 16.5535L13.2982 16.5494L20.2716 0.334624H15.5786L11.2409 11.4144L10.7782 9.16291C10.7575 9.09268 10.7327 9.02245 10.708 8.95222L9.20009 1.70617C8.93156 0.67751 8.15491 0.371804 7.19235 0.334624H0.0495739L0.0578362 0.330493ZM51.1644 0.330493H47.7438C46.6821 0.330493 45.8889 0.619674 45.4262 1.67725L38.8494 16.5659H43.5011C43.5011 16.5659 44.2612 14.5623 44.4347 14.1244C44.9429 14.1244 49.4624 14.1327 50.1068 14.1327C50.239 14.7028 50.6439 16.5659 50.6439 16.5659H54.7544L51.1685 0.330493H51.1644ZM45.736 10.8236C46.1037 9.88586 47.5001 6.28349 47.5001 6.28349C47.4753 6.3248 47.8636 5.34159 48.0867 4.73431L48.3882 6.13477C48.3882 6.13477 49.2351 10.0139 49.4128 10.8278H45.736V10.8236ZM39.7707 0.681641C38.8948 0.351148 37.5192 0 35.8006 0C31.4257 0 28.3439 2.20191 28.315 5.36224C28.2902 7.69635 30.5169 8.99766 32.1941 9.77845C33.9168 10.5758 34.4993 11.0839 34.491 11.7945C34.4786 12.8851 33.1154 13.3808 31.843 13.3808C30.0707 13.3808 29.1288 13.1329 27.6746 12.5298L27.1045 12.2695L26.4849 15.905C27.5176 16.3594 29.4304 16.7518 31.4175 16.7725C36.0733 16.7725 39.0931 14.5954 39.1303 11.2202C39.1469 9.3736 37.9653 7.96487 35.4123 6.80402C33.8631 6.05215 32.9171 5.55228 32.9253 4.78801C32.9253 4.11463 33.7268 3.39168 35.4619 3.39168C36.9119 3.37102 37.9571 3.68499 38.775 4.01549L39.1716 4.20139L39.7707 0.681641Z" fill="white"/>
</svg>
